# xmcd
#
# Track frame offsets:
#	150
#	16532
#	35414
#	44933
#	59813
#	74359
#	88455
#	104494
#	121678
#	136058
#
# Disc length: 1985 seconds
#
# Revision: 0
# Processed by: cddbd v1.5.2PL0 Copyright (c) Steve Scherf et al.
# Submitted via: EasyCDDAExtractor 16.0.6.1
#
DISCID=8f07bf0a
DTITLE=Chris LeDoux - Wild and Wooly
DYEAR=2006
DGENRE=Country
TTITLE0=The Real Thing
TTITLE1=Little Long Haired Outlaw
TTITLE2=A Little Money Honey
TTITLE3=I Do it for Me
TTITLE4=Wild and Wooly
TTITLE5=Born in Mississippi
TTITLE6=Running Through the Rain
TTITLE7=I Believe in America
TTITLE8=Cowboy Songs
TTITLE9=Foggy Mountain Breakdown
EXTD=
EXTT0=
EXTT1=
EXTT2=
EXTT3=
EXTT4=
EXTT5=
EXTT6=
EXTT7=
EXTT8=
EXTT9=
PLAYORDER=
